# xmcd
# 
# Track frame offsets:
#     150
#     23480
#     58375
#     84435
#     123635
#     170537
#     197932
#     230217
#     258125
# 
# Disc length: 3939
# 
# Revision: 1
# Processed by: cddbd v1.5.2PL0 Copyright (c) Steve Scherf et al.
# Submitted via: fre:ac v1.0.31
# 
DISCID=7b0f6109
DTITLE=Ayreon - Universal Migrator Part 2 - Flight Of The Migrator
DYEAR=2000
DGENRE=Progressive Rock
TTITLE0=Chaos
TTITLE1=Dawn Of A Million Souls
TTITLE2=Journey On The Waves Of Time
TTITLE3=To The Quasar
TTITLE4=Into The Black Hole
TTITLE5=Through The Wormhole
TTITLE6=Out Of The White Hole
TTITLE7=To The Solar System
TTITLE8=The New Migrator
EXTD=
EXTT0=
EXTT1=
EXTT2=
EXTT3=
EXTT4=
EXTT5=
EXTT6=
EXTT7=
EXTT8=
PLAYORDER=
